<svg width="100" height="100" viewBox="0 0 100 100" fill="none" xmlns="http://www.w3.org/2000/svg">
<path d="M34.8359 3.28906C24.8444 6.75522 16.2277 13.3341 10.2515 22.0594C4.27529 30.7847 1.25461 41.1964 1.63313 51.7654C2.01165 62.3343 5.76943 72.5033 12.3545 80.7787C18.9396 89.0541 28.0048 94.9997 38.2187 97.7422C46.4994 99.8789 55.1751 99.9727 63.5 98.0156C71.0415 96.3216 78.0139 92.6982 83.7344 87.5C89.6881 81.9246 94.0097 74.8319 96.2344 66.9844C98.6525 58.4505 99.0828 49.476 97.4922 40.75H50.9922V60.0391H77.9219C77.3836 63.1155 76.2303 66.0518 74.5308 68.6721C72.8314 71.2925 70.6208 73.543 68.0312 75.2891C64.7428 77.4643 61.0359 78.9279 57.1484 79.5859C53.2495 80.3109 49.2504 80.3109 45.3515 79.5859C41.3999 78.7689 37.6617 77.1379 34.375 74.7969C29.0949 71.0593 25.1303 65.7494 23.0469 59.625C20.9282 53.3859 20.9282 46.6219 23.0469 40.3828C24.5299 36.0095 26.9815 32.0276 30.2187 28.7344C33.9234 24.8965 38.6135 22.1531 43.7746 20.8053C48.9358 19.4575 54.3684 19.5573 59.4765 21.0938C63.4669 22.3187 67.116 24.4589 70.1328 27.3438C73.1693 24.3229 76.2005 21.2943 79.2266 18.2578C80.7891 16.625 82.4922 15.0703 84.0312 13.3984C79.4263 9.1131 74.0209 5.77857 68.125 3.58594C57.3883 -0.312579 45.6404 -0.417348 34.8359 3.28906Z" fill="white"/>
<path d="M34.8359 3.28906C45.6396 -0.419866 57.3874 -0.317855 68.125 3.57813C74.022 5.78566 79.4249 9.13624 84.0234 13.4375C82.4609 15.1094 80.8125 16.6719 79.2187 18.2969C76.1875 21.3229 73.1588 24.3385 70.1328 27.3438C67.116 24.4589 63.4669 22.3187 59.4766 21.0938C54.3701 19.5519 48.9376 19.4463 43.7752 20.7886C38.6127 22.1309 33.9196 24.8692 30.2109 28.7031C26.9737 31.9964 24.5221 35.9783 23.0391 40.3516L6.84375 27.8125C12.6407 16.3169 22.6777 7.52363 34.8359 3.28906Z" fill="#E33629"/>
<path d="M2.54688 40.2344C3.41736 35.9203 4.86254 31.7424 6.84376 27.8125L23.0391 40.3828C20.9204 46.6219 20.9204 53.3859 23.0391 59.625C17.6432 63.7917 12.2448 67.9792 6.84376 72.1875C1.884 62.315 0.371357 51.0664 2.54688 40.2344Z" fill="#F8BD00"/>
<path d="M50.9922 40.7422H97.4922C99.0828 49.4682 98.6525 58.4427 96.2344 66.9766C94.0097 74.8241 89.6881 81.9168 83.7344 87.4922C78.5078 83.4141 73.2578 79.3672 68.0312 75.2891C70.6225 73.5412 72.8341 71.2882 74.5337 68.6651C76.2332 66.042 77.3856 63.1027 77.9219 60.0234H50.9922C50.9844 53.6016 50.9922 47.1719 50.9922 40.7422Z" fill="#587DBD"/>
<path d="M6.83594 72.1875C12.237 68.0208 17.6354 63.8333 23.0312 59.625C25.1188 65.7515 29.0891 71.0617 34.375 74.7969C37.6719 77.1271 41.4182 78.7448 45.375 79.5469C49.2739 80.2718 53.273 80.2718 57.1719 79.5469C61.0593 78.8888 64.7663 77.4252 68.0547 75.25C73.2813 79.3281 78.5312 83.375 83.7578 87.4531C78.0382 92.6541 71.0658 96.2803 63.5234 97.9766C55.1985 99.9336 46.5228 99.8398 38.2422 97.7031C31.693 95.9545 25.5756 92.8718 20.2734 88.6484C14.6614 84.1929 10.0778 78.5779 6.83594 72.1875Z" fill="#319F43"/>
</svg>
